<svg xmlns="http://www.w3.org/2000/svg" viewBox="0 0 64 64" role="img" aria-labelledby="title desc">
  <title id="title">AEGIS Premium Favicon</title>
  <desc id="desc">Premium 3D shield favicon for the AEGIS defence portal.</desc>
  <defs>
    <linearGradient id="bg" x1="0%" y1="0%" x2="100%" y2="100%">
      <stop offset="0%" stop-color="#163462" />
      <stop offset="100%" stop-color="#2ea6ff" />
    </linearGradient>
    <linearGradient id="shine" x1="0%" y1="0%" x2="100%" y2="100%">
      <stop offset="0%" stop-color="#dff8ff" />
      <stop offset="100%" stop-color="#7fdcff" />
    </linearGradient>
  </defs>
  <rect width="64" height="64" rx="16" fill="url(#bg)"/>
  <circle cx="50" cy="14" r="12" fill="#7c48ff" opacity="0.35"/>
  <path d="M32 8 47 14l-2 21c-1.6 9-7 15.6-13 19-6-3.4-11.4-10-13-19l-2-21Z" fill="#0d2447" stroke="#9de6ff" stroke-width="1.8" stroke-linejoin="round"/>
  <path d="M32 14 42 19l-1.5 14C39 40 35.7 44.8 32 47c-3.7-2.2-7-7-8.5-14L22 19Z" fill="#165493"/>
  <path d="M32 20l7.3 18h-4l-1.6-4h-3.4l-1.6 4h-4L32 20Zm-1 10h2l-1-2.9Z" fill="url(#shine)"/>
  <rect x="20" y="50" width="24" height="8" rx="4" fill="#102c56" opacity="0.9"/>
</svg>